<svg xmlns="http://www.w3.org/2000/svg" viewBox="0 0 180 180" width="180" height="180">
  <circle cx="20" cy="26" r="2" fill="#fff7cc" opacity="0.9" />
  <circle cx="150" cy="30" r="1.5" fill="#ffffff" opacity="0.7" />
  <circle cx="60" cy="90" r="2" fill="#fff3a6" opacity="0.8" />
  <circle cx="120" cy="120" r="1.8" fill="#ffffff" opacity="0.6" />
  <path d="M90 20 L92 26 L98 28 L92 30 L90 36 L88 30 L82 28 L88 26 Z" fill="#fff1a8" opacity="0.7" />
  <path d="M30 130 L31.5 134 L36 135.5 L31.5 137 L30 141 L28.5 137 L24 135.5 L28.5 134 Z" fill="#ffffff" opacity="0.6" />
  <path d="M150 150 L151.5 154 L156 155.5 L151.5 157 L150 161 L148.5 157 L144 155.5 L148.5 154 Z" fill="#fff7cc" opacity="0.7" />
</svg>
